<mxfile host="app.diagrams.net" modified="2022-12-18T02:28:57.013Z" agent="5.0 (Macintosh; Intel Mac OS X 10_15_7) AppleWebKit/605.1.15 (KHTML, like Gecko) Version/13.1.3 Safari/605.1.15" etag="fM1LxwpPTxqRthedGjc0" version="20.7.4" type="github">
  <diagram id="6a731a19-8d31-9384-78a2-239565b7b9f0" name="Page-1">
    <mxGraphModel dx="1565" dy="967" grid="1" gridSize="10" guides="1" tooltips="1" connect="1" arrows="1" fold="1" page="1" pageScale="1" pageWidth="827" pageHeight="1169" background="none" math="0" shadow="0">
      <root>
        <mxCell id="0" />
        <mxCell id="1" parent="0" />
        <mxCell id="ke3xmdytQEZb5tG5t1bp-2296" style="edgeStyle=orthogonalEdgeStyle;rounded=0;orthogonalLoop=1;jettySize=auto;html=1;exitX=1;exitY=0.5;exitDx=0;exitDy=0;entryX=0.5;entryY=0.98;entryDx=0;entryDy=0;entryPerimeter=0;strokeWidth=3;fontSize=14;fontColor=#000099;endArrow=none;endFill=0;" edge="1" parent="1" source="ke3xmdytQEZb5tG5t1bp-2290" target="ke3xmdytQEZb5tG5t1bp-2287">
          <mxGeometry relative="1" as="geometry" />
        </mxCell>
        <mxCell id="ke3xmdytQEZb5tG5t1bp-2290" value="" style="rounded=1;whiteSpace=wrap;html=1;labelBackgroundColor=none;fontSize=14;fillColor=#dae8fc;strokeColor=#6c8ebf;" vertex="1" parent="1">
          <mxGeometry x="707" y="600" width="203" height="100" as="geometry" />
        </mxCell>
        <mxCell id="ke3xmdytQEZb5tG5t1bp-2294" style="edgeStyle=orthogonalEdgeStyle;rounded=0;orthogonalLoop=1;jettySize=auto;html=1;exitX=1;exitY=0.5;exitDx=0;exitDy=0;strokeWidth=3;fontSize=14;fontColor=#000099;endArrow=none;endFill=0;" edge="1" parent="1" source="ke3xmdytQEZb5tG5t1bp-2289" target="ke3xmdytQEZb5tG5t1bp-2287">
          <mxGeometry relative="1" as="geometry" />
        </mxCell>
        <mxCell id="ke3xmdytQEZb5tG5t1bp-2289" value="" style="rounded=1;whiteSpace=wrap;html=1;labelBackgroundColor=none;fontSize=14;fillColor=#dae8fc;strokeColor=#6c8ebf;" vertex="1" parent="1">
          <mxGeometry x="633.5" y="430" width="350" height="110" as="geometry" />
        </mxCell>
        <mxCell id="ke3xmdytQEZb5tG5t1bp-2285" style="edgeStyle=orthogonalEdgeStyle;rounded=0;orthogonalLoop=1;jettySize=auto;html=1;exitX=1;exitY=0.5;exitDx=0;exitDy=0;entryX=0;entryY=0.5;entryDx=0;entryDy=0;entryPerimeter=0;strokeWidth=3;fontSize=14;fontColor=#000099;endArrow=none;endFill=0;" edge="1" parent="1" source="ke3xmdytQEZb5tG5t1bp-2284" target="ke3xmdytQEZb5tG5t1bp-2270">
          <mxGeometry relative="1" as="geometry" />
        </mxCell>
        <mxCell id="ke3xmdytQEZb5tG5t1bp-2284" value="" style="rounded=1;whiteSpace=wrap;html=1;fontSize=14;fillColor=#dae8fc;strokeColor=#6c8ebf;labelBackgroundColor=none;" vertex="1" parent="1">
          <mxGeometry x="680" y="146.5" width="257" height="200" as="geometry" />
        </mxCell>
        <mxCell id="ke3xmdytQEZb5tG5t1bp-2275" style="edgeStyle=orthogonalEdgeStyle;rounded=0;orthogonalLoop=1;jettySize=auto;html=1;exitX=0.5;exitY=0.99;exitDx=0;exitDy=0;exitPerimeter=0;entryX=0.5;entryY=0;entryDx=0;entryDy=0;entryPerimeter=0;fontSize=14;fontColor=#000099;endArrow=none;endFill=0;strokeWidth=3;" edge="1" parent="1" source="ke3xmdytQEZb5tG5t1bp-2257" target="ke3xmdytQEZb5tG5t1bp-2263">
          <mxGeometry relative="1" as="geometry" />
        </mxCell>
        <mxCell id="ke3xmdytQEZb5tG5t1bp-2257" value="&lt;font color=&quot;#000099&quot; style=&quot;font-size: 24px;&quot;&gt;Internet&lt;/font&gt;" style="shape=mxgraph.cisco.storage.cloud;sketch=0;html=1;pointerEvents=1;dashed=0;strokeWidth=2;verticalLabelPosition=middle;verticalAlign=middle;align=center;outlineConnect=0;labelPosition=center;" vertex="1" parent="1">
          <mxGeometry x="1360" y="30" width="186" height="106" as="geometry" />
        </mxCell>
        <mxCell id="ke3xmdytQEZb5tG5t1bp-2297" style="edgeStyle=orthogonalEdgeStyle;rounded=0;orthogonalLoop=1;jettySize=auto;html=1;exitX=1;exitY=0.5;exitDx=0;exitDy=0;exitPerimeter=0;entryX=0;entryY=0.5;entryDx=0;entryDy=0;entryPerimeter=0;strokeWidth=3;fontSize=14;fontColor=#000099;endArrow=none;endFill=0;" edge="1" parent="1" source="ke3xmdytQEZb5tG5t1bp-2258" target="ke3xmdytQEZb5tG5t1bp-2263">
          <mxGeometry relative="1" as="geometry" />
        </mxCell>
        <mxCell id="ke3xmdytQEZb5tG5t1bp-2258" value="&lt;font style=&quot;font-size: 14px;&quot;&gt;firewall&lt;/font&gt;" style="shape=mxgraph.cisco.security.firewall;sketch=0;html=1;pointerEvents=1;dashed=0;fillColor=#036897;strokeColor=#ffffff;strokeWidth=2;verticalLabelPosition=bottom;verticalAlign=top;align=center;outlineConnect=0;fontSize=24;fontColor=#000099;" vertex="1" parent="1">
          <mxGeometry x="1275" y="213" width="30" height="67" as="geometry" />
        </mxCell>
        <mxCell id="ke3xmdytQEZb5tG5t1bp-2263" value="" style="shape=mxgraph.cisco.routers.router;sketch=0;html=1;pointerEvents=1;dashed=0;fillColor=#036897;strokeColor=#ffffff;strokeWidth=2;verticalLabelPosition=bottom;verticalAlign=top;align=center;outlineConnect=0;fontSize=14;fontColor=#000099;" vertex="1" parent="1">
          <mxGeometry x="1413" y="220" width="80" height="53" as="geometry" />
        </mxCell>
        <mxCell id="ke3xmdytQEZb5tG5t1bp-2265" value="Web server" style="shape=mxgraph.cisco.servers.fileserver;sketch=0;html=1;pointerEvents=1;dashed=0;fillColor=#036897;strokeColor=#ffffff;strokeWidth=2;verticalLabelPosition=bottom;verticalAlign=top;align=center;outlineConnect=0;fontSize=14;fontColor=#000099;" vertex="1" parent="1">
          <mxGeometry x="867" y="154.5" width="43" height="62" as="geometry" />
        </mxCell>
        <mxCell id="ke3xmdytQEZb5tG5t1bp-2267" value="Mail server" style="shape=mxgraph.cisco.servers.fileserver;sketch=0;html=1;pointerEvents=1;dashed=0;fillColor=#036897;strokeColor=#ffffff;strokeWidth=2;verticalLabelPosition=bottom;verticalAlign=top;align=center;outlineConnect=0;fontSize=14;fontColor=#000099;" vertex="1" parent="1">
          <mxGeometry x="837" y="254.5" width="43" height="62" as="geometry" />
        </mxCell>
        <mxCell id="ke3xmdytQEZb5tG5t1bp-2286" style="edgeStyle=orthogonalEdgeStyle;rounded=0;orthogonalLoop=1;jettySize=auto;html=1;exitX=0.5;exitY=0.98;exitDx=0;exitDy=0;exitPerimeter=0;entryX=0.5;entryY=0;entryDx=0;entryDy=0;entryPerimeter=0;strokeWidth=3;fontSize=14;fontColor=#000099;endArrow=none;endFill=0;" edge="1" parent="1" source="ke3xmdytQEZb5tG5t1bp-2270" target="ke3xmdytQEZb5tG5t1bp-2272">
          <mxGeometry relative="1" as="geometry" />
        </mxCell>
        <mxCell id="ke3xmdytQEZb5tG5t1bp-2299" style="edgeStyle=orthogonalEdgeStyle;rounded=0;orthogonalLoop=1;jettySize=auto;html=1;exitX=0.98;exitY=0.5;exitDx=0;exitDy=0;exitPerimeter=0;entryX=0;entryY=0.5;entryDx=0;entryDy=0;entryPerimeter=0;strokeWidth=3;fontSize=14;fontColor=#000099;endArrow=none;endFill=0;" edge="1" parent="1" source="ke3xmdytQEZb5tG5t1bp-2270" target="ke3xmdytQEZb5tG5t1bp-2258">
          <mxGeometry relative="1" as="geometry" />
        </mxCell>
        <mxCell id="ke3xmdytQEZb5tG5t1bp-2270" value="Switch" style="shape=mxgraph.cisco.switches.workgroup_switch;sketch=0;html=1;pointerEvents=1;dashed=0;fillColor=#036897;strokeColor=#ffffff;strokeWidth=2;verticalLabelPosition=bottom;verticalAlign=top;align=center;outlineConnect=0;fontSize=14;fontColor=#000099;" vertex="1" parent="1">
          <mxGeometry x="1047" y="221.5" width="101" height="50" as="geometry" />
        </mxCell>
        <mxCell id="ke3xmdytQEZb5tG5t1bp-2288" style="edgeStyle=orthogonalEdgeStyle;rounded=0;orthogonalLoop=1;jettySize=auto;html=1;exitX=0.5;exitY=1;exitDx=0;exitDy=0;exitPerimeter=0;entryX=0.5;entryY=0;entryDx=0;entryDy=0;entryPerimeter=0;strokeWidth=3;fontSize=14;fontColor=#000099;endArrow=none;endFill=0;" edge="1" parent="1" source="ke3xmdytQEZb5tG5t1bp-2272" target="ke3xmdytQEZb5tG5t1bp-2287">
          <mxGeometry relative="1" as="geometry" />
        </mxCell>
        <mxCell id="ke3xmdytQEZb5tG5t1bp-2272" value="&lt;font style=&quot;font-size: 14px;&quot;&gt;firewall&lt;/font&gt;" style="shape=mxgraph.cisco.security.firewall;sketch=0;html=1;pointerEvents=1;dashed=0;fillColor=#036897;strokeColor=#ffffff;strokeWidth=2;verticalLabelPosition=bottom;verticalAlign=top;align=center;outlineConnect=0;fontSize=24;fontColor=#000099;" vertex="1" parent="1">
          <mxGeometry x="1082.5" y="330" width="30" height="67" as="geometry" />
        </mxCell>
        <mxCell id="ke3xmdytQEZb5tG5t1bp-2280" value="Web server" style="shape=mxgraph.cisco.servers.fileserver;sketch=0;html=1;pointerEvents=1;dashed=0;fillColor=#036897;strokeColor=#ffffff;strokeWidth=2;verticalLabelPosition=bottom;verticalAlign=top;align=center;outlineConnect=0;fontSize=14;fontColor=#000099;" vertex="1" parent="1">
          <mxGeometry x="787" y="154.5" width="43" height="62" as="geometry" />
        </mxCell>
        <mxCell id="ke3xmdytQEZb5tG5t1bp-2281" value="Web server" style="shape=mxgraph.cisco.servers.fileserver;sketch=0;html=1;pointerEvents=1;dashed=0;fillColor=#036897;strokeColor=#ffffff;strokeWidth=2;verticalLabelPosition=bottom;verticalAlign=top;align=center;outlineConnect=0;fontSize=14;fontColor=#000099;" vertex="1" parent="1">
          <mxGeometry x="707" y="154.5" width="43" height="62" as="geometry" />
        </mxCell>
        <mxCell id="ke3xmdytQEZb5tG5t1bp-2283" value="Mail server" style="shape=mxgraph.cisco.servers.fileserver;sketch=0;html=1;pointerEvents=1;dashed=0;fillColor=#036897;strokeColor=#ffffff;strokeWidth=2;verticalLabelPosition=bottom;verticalAlign=top;align=center;outlineConnect=0;fontSize=14;fontColor=#000099;" vertex="1" parent="1">
          <mxGeometry x="737" y="254.5" width="43" height="62" as="geometry" />
        </mxCell>
        <mxCell id="ke3xmdytQEZb5tG5t1bp-2287" value="Switch" style="shape=mxgraph.cisco.switches.workgroup_switch;sketch=0;html=1;pointerEvents=1;dashed=0;fillColor=#036897;strokeColor=#ffffff;strokeWidth=2;verticalLabelPosition=bottom;verticalAlign=top;align=center;outlineConnect=0;fontSize=14;fontColor=#000099;" vertex="1" parent="1">
          <mxGeometry x="1047" y="460" width="101" height="50" as="geometry" />
        </mxCell>
        <mxCell id="ke3xmdytQEZb5tG5t1bp-2291" value="Database server" style="shape=mxgraph.cisco.servers.fileserver;sketch=0;html=1;pointerEvents=1;dashed=0;fillColor=#036897;strokeColor=#ffffff;strokeWidth=2;verticalLabelPosition=bottom;verticalAlign=top;align=center;outlineConnect=0;fontSize=14;fontColor=#000099;" vertex="1" parent="1">
          <mxGeometry x="673.5" y="440" width="43" height="62" as="geometry" />
        </mxCell>
        <mxCell id="ke3xmdytQEZb5tG5t1bp-2292" value="Database server" style="shape=mxgraph.cisco.servers.fileserver;sketch=0;html=1;pointerEvents=1;dashed=0;fillColor=#036897;strokeColor=#ffffff;strokeWidth=2;verticalLabelPosition=bottom;verticalAlign=top;align=center;outlineConnect=0;fontSize=14;fontColor=#000099;" vertex="1" parent="1">
          <mxGeometry x="787.5" y="440" width="43" height="62" as="geometry" />
        </mxCell>
        <mxCell id="ke3xmdytQEZb5tG5t1bp-2293" value="Database server" style="shape=mxgraph.cisco.servers.fileserver;sketch=0;html=1;pointerEvents=1;dashed=0;fillColor=#036897;strokeColor=#ffffff;strokeWidth=2;verticalLabelPosition=bottom;verticalAlign=top;align=center;outlineConnect=0;fontSize=14;fontColor=#000099;" vertex="1" parent="1">
          <mxGeometry x="900.5" y="440" width="43" height="62" as="geometry" />
        </mxCell>
        <mxCell id="ke3xmdytQEZb5tG5t1bp-2295" value="PC x 40" style="shape=mxgraph.cisco.computers_and_peripherals.macintosh;sketch=0;pointerEvents=1;dashed=0;fillColor=#036897;strokeColor=#ffffff;strokeWidth=2;verticalLabelPosition=middle;verticalAlign=middle;align=left;outlineConnect=0;labelBackgroundColor=none;fontSize=14;fontColor=#000099;labelPosition=right;" vertex="1" parent="1">
          <mxGeometry x="740" y="618" width="99" height="64" as="geometry" />
        </mxCell>
        <mxCell id="ke3xmdytQEZb5tG5t1bp-2307" style="edgeStyle=orthogonalEdgeStyle;rounded=0;orthogonalLoop=1;jettySize=auto;html=1;exitX=0.5;exitY=1;exitDx=0;exitDy=0;entryX=0.5;entryY=0;entryDx=0;entryDy=0;entryPerimeter=0;strokeWidth=3;fontSize=20;fontColor=#FF66FF;endArrow=none;endFill=0;" edge="1" parent="1" source="ke3xmdytQEZb5tG5t1bp-2301" target="ke3xmdytQEZb5tG5t1bp-2270">
          <mxGeometry relative="1" as="geometry" />
        </mxCell>
        <mxCell id="ke3xmdytQEZb5tG5t1bp-2301" value="&lt;font color=&quot;#ff66ff&quot; style=&quot;font-size: 20px;&quot;&gt;Honeypot&lt;/font&gt;" style="rounded=0;whiteSpace=wrap;html=1;labelBackgroundColor=none;fontSize=14;fillColor=#d5e8d4;strokeColor=#82b366;" vertex="1" parent="1">
          <mxGeometry x="1037.5" y="53" width="120" height="60" as="geometry" />
        </mxCell>
        <mxCell id="ke3xmdytQEZb5tG5t1bp-2308" style="edgeStyle=orthogonalEdgeStyle;rounded=0;orthogonalLoop=1;jettySize=auto;html=1;exitX=1;exitY=0.5;exitDx=0;exitDy=0;strokeWidth=3;fontSize=20;fontColor=#FF66FF;endArrow=none;endFill=0;" edge="1" parent="1" source="ke3xmdytQEZb5tG5t1bp-2302">
          <mxGeometry relative="1" as="geometry">
            <mxPoint x="1450" y="159.66666666666674" as="targetPoint" />
          </mxGeometry>
        </mxCell>
        <mxCell id="ke3xmdytQEZb5tG5t1bp-2302" value="&lt;font color=&quot;#ff66ff&quot; style=&quot;font-size: 20px;&quot;&gt;Honeypot&lt;/font&gt;" style="rounded=0;whiteSpace=wrap;html=1;labelBackgroundColor=none;fontSize=14;fillColor=#d5e8d4;strokeColor=#82b366;" vertex="1" parent="1">
          <mxGeometry x="1220" y="130" width="120" height="60" as="geometry" />
        </mxCell>
        <mxCell id="ke3xmdytQEZb5tG5t1bp-2304" style="edgeStyle=orthogonalEdgeStyle;rounded=0;orthogonalLoop=1;jettySize=auto;html=1;exitX=0;exitY=0.5;exitDx=0;exitDy=0;entryX=0.98;entryY=0.5;entryDx=0;entryDy=0;entryPerimeter=0;strokeWidth=3;fontSize=20;fontColor=#FF66FF;endArrow=none;endFill=0;" edge="1" parent="1" source="ke3xmdytQEZb5tG5t1bp-2303" target="ke3xmdytQEZb5tG5t1bp-2287">
          <mxGeometry relative="1" as="geometry" />
        </mxCell>
        <mxCell id="ke3xmdytQEZb5tG5t1bp-2303" value="&lt;font color=&quot;#ff66ff&quot; style=&quot;font-size: 20px;&quot;&gt;Honeypot&lt;/font&gt;" style="rounded=0;whiteSpace=wrap;html=1;labelBackgroundColor=none;fontSize=14;fillColor=#d5e8d4;strokeColor=#82b366;" vertex="1" parent="1">
          <mxGeometry x="1230" y="455" width="120" height="60" as="geometry" />
        </mxCell>
      </root>
    </mxGraphModel>
  </diagram>
</mxfile>
